<svg width="24" height="25" viewBox="0 0 24 25" fill="none" xmlns="http://www.w3.org/2000/svg">
<path d="M0 12.6306C0 6.00322 5.3726 0.630615 12 0.630615C18.6274 0.630615 24 6.00322 24 12.6306C24 19.258 18.6274 24.6306 12 24.6306C5.3726 24.6306 0 19.258 0 12.6306Z" fill="#333333"/>
<path d="M9.59995 19.8308C10.9254 19.8308 12 18.7562 12 17.4308V15.0308H9.59995C8.27447 15.0308 7.19995 16.1053 7.19995 17.4308C7.19995 18.7562 8.27447 19.8308 9.59995 19.8308Z" fill="#0ACF83"/>
<path d="M7.19995 12.6307C7.19995 11.3052 8.27447 10.2307 9.59995 10.2307H12V15.0307H9.59995C8.27447 15.0307 7.19995 13.9562 7.19995 12.6307Z" fill="#A259FF"/>
<path d="M7.19995 7.83066C7.19995 6.50518 8.27447 5.43066 9.59995 5.43066H12V10.2307H9.59995C8.27447 10.2307 7.19995 9.15615 7.19995 7.83066Z" fill="#F24E1E"/>
<path d="M12 5.43066H14.4C15.7255 5.43066 16.8 6.50518 16.8 7.83066C16.8 9.15615 15.7255 10.2307 14.4 10.2307H12V5.43066Z" fill="#FF7262"/>
<path d="M16.8 12.6307C16.8 13.9562 15.7255 15.0307 14.4 15.0307C13.0745 15.0307 12 13.9562 12 12.6307C12 11.3052 13.0745 10.2307 14.4 10.2307C15.7255 10.2307 16.8 11.3052 16.8 12.6307Z" fill="#1ABCFE"/>
</svg>
