<svg width="344" height="41" viewBox="0 0 344 41" fill="none" xmlns="http://www.w3.org/2000/svg">
<rect x="0.5" y="0.880615" width="343" height="40" rx="6" fill="#333333"/>
<path d="M119.869 21.1087C119.87 20.4272 119.812 19.747 119.695 19.0754H110.2V22.9266H115.638C115.527 23.5417 115.292 24.1281 114.946 24.6503C114.6 25.1726 114.152 25.6199 113.627 25.9654V28.4652H116.873C118.774 26.7251 119.869 24.1516 119.869 21.1087Z" fill="#4285F4"/>
<path d="M110.2 30.8806C112.917 30.8806 115.205 29.9946 116.873 28.4669L113.628 25.967C112.724 26.5753 111.561 26.9225 110.2 26.9225C107.573 26.9225 105.344 25.1642 104.547 22.7949H101.203V25.3712C102.041 27.0273 103.326 28.4195 104.915 29.3924C106.504 30.3653 108.333 30.8805 110.2 30.8806Z" fill="#34A853"/>
<path d="M104.547 22.7946C104.126 21.5531 104.126 20.2086 104.547 18.967V16.3907H101.203C100.498 17.7839 100.131 19.3216 100.131 20.8808C100.131 22.44 100.498 23.9777 101.203 25.3709L104.547 22.7946Z" fill="#FBBC04"/>
<path d="M110.2 14.8394C111.636 14.8161 113.023 15.3549 114.062 16.3393L116.936 13.4853C115.114 11.7855 112.7 10.8523 110.2 10.8813C108.333 10.8814 106.504 11.3966 104.915 12.3695C103.326 13.3424 102.041 14.7346 101.203 16.3907L104.547 18.967C105.344 16.5977 107.573 14.8394 110.2 14.8394Z" fill="#EA4335"/>
<path d="M132.424 16.2849C130.028 16.2849 128.528 17.9724 128.528 20.656C128.528 23.3396 130.028 25.0212 132.424 25.0212C134.821 25.0212 136.321 23.3396 136.321 20.656C136.321 17.9724 134.821 16.2849 132.424 16.2849ZM132.424 17.2576C134.153 17.2576 135.237 18.5701 135.237 20.656C135.237 22.7361 134.153 24.0486 132.424 24.0486C130.696 24.0486 129.612 22.7361 129.612 20.656C129.612 18.5701 130.696 17.2576 132.424 17.2576ZM137.775 24.8806H138.795V21.0837C138.795 20.2224 139.31 19.6541 140.101 19.6541C140.347 19.6541 140.564 19.6833 140.646 19.7126V18.7224C140.564 18.7107 140.412 18.6814 140.236 18.6814C139.521 18.6814 138.959 19.1091 138.759 19.783H138.736V18.7869H137.775V24.8806ZM144.434 20.4685C144.434 21.3474 144.99 21.8806 146.139 22.156L147.105 22.3904C147.803 22.5603 148.043 22.8123 148.043 23.2517C148.043 23.8025 147.533 24.1541 146.707 24.1541C145.881 24.1541 145.412 23.8201 145.289 23.1228H144.27C144.387 24.2654 145.277 24.9861 146.707 24.9861C148.066 24.9861 149.068 24.2361 149.068 23.1755C149.068 22.3025 148.623 21.822 147.393 21.5232L146.426 21.2888C145.746 21.1248 145.436 20.8376 145.436 20.4158C145.436 19.8826 145.928 19.5134 146.672 19.5134C147.422 19.5134 147.891 19.906 147.967 20.5447H148.939C148.898 19.4666 148.008 18.6814 146.672 18.6814C145.354 18.6814 144.434 19.4255 144.434 20.4685ZM150.482 24.8806H151.501V18.7869H150.482V24.8806ZM150.991 17.7029C151.349 17.7029 151.63 17.4158 151.63 17.0642C151.63 16.7068 151.349 16.4255 150.991 16.4255C150.64 16.4255 150.353 16.7068 150.353 17.0642C150.353 17.4158 150.64 17.7029 150.991 17.7029ZM155.657 24.031C154.608 24.031 153.922 23.1755 153.922 21.8103C153.922 20.4451 154.608 19.5779 155.657 19.5779C156.717 19.5779 157.426 20.4685 157.426 21.8103C157.426 23.1521 156.717 24.031 155.657 24.031ZM155.692 27.1775C157.373 27.1775 158.446 26.2107 158.446 24.7576V18.7869H157.473V19.8123H157.455C157.051 19.1033 156.336 18.6814 155.475 18.6814C153.899 18.6814 152.879 19.9001 152.879 21.8103C152.879 23.7029 153.899 24.9275 155.452 24.9275C156.307 24.9275 157.028 24.4939 157.403 23.8318H157.426V24.7927C157.426 25.7009 156.787 26.3103 155.733 26.3103C154.971 26.3103 154.368 25.9412 154.168 25.3845H153.12C153.289 26.4216 154.35 27.1775 155.692 27.1775ZM160.076 24.8806H161.095V21.2947C161.095 20.2634 161.722 19.5837 162.683 19.5837C163.621 19.5837 164.084 20.1228 164.084 21.1072V24.8806H165.103V20.9255C165.103 19.5427 164.33 18.6814 162.994 18.6814C162.05 18.6814 161.4 19.1033 161.06 19.7595H161.037V18.7869H160.076V24.8806ZM169.518 24.8806H170.537V18.7869H169.518V24.8806ZM170.027 17.7029C170.385 17.7029 170.666 17.4158 170.666 17.0642C170.666 16.7068 170.385 16.4255 170.027 16.4255C169.676 16.4255 169.389 16.7068 169.389 17.0642C169.389 17.4158 169.676 17.7029 170.027 17.7029ZM172.214 24.8806H173.234V21.2947C173.234 20.2634 173.861 19.5837 174.821 19.5837C175.759 19.5837 176.222 20.1228 176.222 21.1072V24.8806H177.241V20.9255C177.241 19.5427 176.468 18.6814 175.132 18.6814C174.189 18.6814 173.538 19.1033 173.198 19.7595H173.175V18.7869H172.214V24.8806ZM189.355 18.7869H188.347L187.129 23.7439H187.105L185.722 18.7869H184.738L183.361 23.7439H183.337L182.119 18.7869H181.105L182.81 24.8806H183.847L185.218 20.1638H185.242L186.619 24.8806H187.656L189.355 18.7869ZM190.546 24.8806H191.565V18.7869H190.546V24.8806ZM191.055 17.7029C191.413 17.7029 191.694 17.4158 191.694 17.0642C191.694 16.7068 191.413 16.4255 191.055 16.4255C190.704 16.4255 190.417 16.7068 190.417 17.0642C190.417 17.4158 190.704 17.7029 191.055 17.7029ZM193.57 17.3162V18.7869H192.662V19.6248H193.57V23.2986C193.57 24.4705 194.004 24.9275 195.123 24.9275C195.363 24.9275 195.645 24.9099 195.768 24.8806V24.0251C195.697 24.0369 195.463 24.0544 195.346 24.0544C194.824 24.0544 194.59 23.8025 194.59 23.2458V19.6248H195.773V18.7869H194.59V17.3162H193.57ZM197.216 24.8806H198.236V21.3298C198.236 20.2751 198.862 19.5837 199.876 19.5837C200.831 19.5837 201.318 20.1638 201.318 21.1306V24.8806H202.337V20.9431C202.337 19.5837 201.529 18.6814 200.193 18.6814C199.267 18.6814 198.599 19.0798 198.259 19.7595H198.236V16.4255H197.216V24.8806ZM213.982 21.3826V20.5798H210.543V21.5056H212.927V21.658C212.927 23.0759 211.896 24.0486 210.396 24.0486C208.673 24.0486 207.607 22.7302 207.607 20.6033C207.607 18.5115 208.656 17.2576 210.396 17.2576C211.586 17.2576 212.47 17.908 212.822 19.0505H213.929C213.613 17.3689 212.224 16.2849 210.396 16.2849C208.029 16.2849 206.523 17.9666 206.523 20.6091C206.523 23.2986 208.035 25.0212 210.396 25.0212C212.652 25.0212 213.982 23.6677 213.982 21.3826ZM218.003 24.9861C219.684 24.9861 220.821 23.7732 220.821 21.8337C220.821 19.8884 219.684 18.6814 218.003 18.6814C216.315 18.6814 215.179 19.8884 215.179 21.8337C215.179 23.7732 216.315 24.9861 218.003 24.9861ZM218.003 24.0896C216.925 24.0896 216.216 23.2693 216.216 21.8337C216.216 20.3982 216.925 19.5779 218.003 19.5779C219.081 19.5779 219.784 20.3982 219.784 21.8337C219.784 23.2693 219.081 24.0896 218.003 24.0896ZM224.678 24.9861C226.359 24.9861 227.496 23.7732 227.496 21.8337C227.496 19.8884 226.359 18.6814 224.678 18.6814C222.99 18.6814 221.854 19.8884 221.854 21.8337C221.854 23.7732 222.99 24.9861 224.678 24.9861ZM224.678 24.0896C223.6 24.0896 222.891 23.2693 222.891 21.8337C222.891 20.3982 223.6 19.5779 224.678 19.5779C225.756 19.5779 226.459 20.3982 226.459 21.8337C226.459 23.2693 225.756 24.0896 224.678 24.0896ZM231.306 24.031C230.257 24.031 229.571 23.1755 229.571 21.8103C229.571 20.4451 230.257 19.5779 231.306 19.5779C232.366 19.5779 233.075 20.4685 233.075 21.8103C233.075 23.1521 232.366 24.031 231.306 24.031ZM231.341 27.1775C233.023 27.1775 234.095 26.2107 234.095 24.7576V18.7869H233.122V19.8123H233.105C232.7 19.1033 231.986 18.6814 231.124 18.6814C229.548 18.6814 228.529 19.9001 228.529 21.8103C228.529 23.7029 229.548 24.9275 231.101 24.9275C231.956 24.9275 232.677 24.4939 233.052 23.8318H233.075V24.7927C233.075 25.7009 232.437 26.3103 231.382 26.3103C230.62 26.3103 230.017 25.9412 229.818 25.3845H228.769C228.939 26.4216 229.999 27.1775 231.341 27.1775ZM235.778 24.8806H236.797V16.4255H235.778V24.8806ZM240.918 19.5662C241.879 19.5662 242.517 20.2927 242.541 21.3123H239.23C239.295 20.2986 239.963 19.5662 240.918 19.5662ZM242.517 23.1345C242.347 23.7087 241.779 24.1013 241.005 24.1013C239.91 24.1013 239.224 23.3337 239.224 22.1677V22.1091H243.595V21.7224C243.595 19.8767 242.582 18.6814 240.935 18.6814C239.254 18.6814 238.175 19.9646 238.175 21.8572C238.175 23.7732 239.236 24.9861 240.982 24.9861C242.312 24.9861 243.343 24.2009 243.519 23.1345H242.517Z" fill="white"/>
</svg>
